<svg width="30" height="29" viewBox="0 0 30 29" fill="none" xmlns="http://www.w3.org/2000/svg">
<circle cx="14" cy="14.0377" r="14" fill="#1E9FF2"/>
<path d="M8.83848 18.5469C9.67804 17.958 10.5109 17.5063 11.3372 17.1918C12.1634 16.8773 13.0496 16.72 13.9957 16.72C14.9419 16.72 15.8314 16.8773 16.6643 17.1918C17.4972 17.5063 18.3334 17.958 19.173 18.5469C19.7593 17.8242 20.1758 17.0948 20.4223 16.3587C20.6688 15.6226 20.7921 14.8464 20.7921 14.03C20.7921 12.0894 20.1425 10.4667 18.8431 9.16181C17.5438 7.85694 15.928 7.2045 13.9957 7.2045C12.0634 7.2045 10.4476 7.85694 9.14832 9.16181C7.84901 10.4667 7.19936 12.0894 7.19936 14.03C7.19936 14.8464 7.32596 15.6226 7.57916 16.3587C7.83236 17.0948 8.25213 17.8242 8.83848 18.5469ZM13.992 14.6322C13.2216 14.6322 12.5732 14.3667 12.0468 13.8356C11.5204 13.3044 11.2572 12.652 11.2572 11.8782C11.2572 11.1045 11.5216 10.4533 12.0505 9.92466C12.5794 9.39602 13.229 9.1317 13.9995 9.1317C14.7699 9.1317 15.4183 9.39727 15.9447 9.9284C16.4711 10.4595 16.7343 11.112 16.7343 11.8857C16.7343 12.6595 16.4698 13.3106 15.941 13.8393C15.4121 14.3679 14.7625 14.6322 13.992 14.6322ZM14.0051 22.06C12.9061 22.06 11.8702 21.8492 10.8974 21.4276C9.92457 21.0061 9.07503 20.4306 8.34875 19.7012C7.62247 18.9718 7.04944 18.1202 6.62966 17.1463C6.20989 16.1725 6 15.1319 6 14.0247C6 12.9174 6.20989 11.8786 6.62966 10.9083C7.04944 9.93805 7.62247 9.0882 8.34875 8.35881C9.07503 7.62942 9.92301 7.05394 10.8927 6.63236C11.8624 6.21079 12.8985 6 14.001 6C15.1036 6 16.1379 6.21079 17.1041 6.63236C18.0702 7.05394 18.9164 7.62942 19.6427 8.35881C20.369 9.0882 20.942 9.93826 21.3618 10.909C21.7816 11.8797 21.9915 12.9169 21.9915 14.0206C21.9915 15.1243 21.7816 16.1646 21.3618 17.1416C20.942 18.1186 20.369 18.9718 19.6427 19.7012C18.9164 20.4306 18.07 21.0061 17.1034 21.4276C16.1369 21.8492 15.1041 22.06 14.0051 22.06ZM13.9957 20.8555C14.7287 20.8555 15.445 20.7484 16.1446 20.5343C16.8442 20.3202 17.5338 19.9454 18.2135 19.4101C17.5338 18.9283 16.8409 18.5603 16.1346 18.306C15.4283 18.0517 14.7153 17.9245 13.9957 17.9245C13.2761 17.9245 12.5632 18.0517 11.8569 18.306C11.1506 18.5603 10.4576 18.9283 9.77798 19.4101C10.4576 19.9454 11.1473 20.3202 11.8469 20.5343C12.5465 20.7484 13.2628 20.8555 13.9957 20.8555ZM13.9957 13.4277C14.4488 13.4277 14.8186 13.2839 15.1051 12.9961C15.3917 12.7084 15.5349 12.337 15.5349 11.882C15.5349 11.4269 15.3917 11.0556 15.1051 10.7678C14.8186 10.4801 14.4488 10.3362 13.9957 10.3362C13.5426 10.3362 13.1728 10.4801 12.8863 10.7678C12.5998 11.0556 12.4566 11.4269 12.4566 11.882C12.4566 12.337 12.5998 12.7084 12.8863 12.9961C13.1728 13.2839 13.5426 13.4277 13.9957 13.4277Z" fill="white"/>
</svg>
