<svg width="28" height="28" viewBox="0 0 28 28" fill="none" xmlns="http://www.w3.org/2000/svg">
<circle cx="14" cy="14" r="14" fill="#1E9FF2"/>
<path d="M11.8333 17.3333H17.5V15.9167H11.8333V17.3333ZM11.8333 14.5H17.5V13.0833H11.8333V14.5ZM10.4167 20.1667C10.0271 20.1667 9.69358 20.028 9.41615 19.7505C9.13872 19.4731 9 19.1396 9 18.75V7.41667C9 7.02708 9.13872 6.69358 9.41615 6.41615C9.69358 6.13872 10.0271 6 10.4167 6H16.0833L20.3333 10.25V18.75C20.3333 19.1396 20.1946 19.4731 19.9172 19.7505C19.6398 20.028 19.3062 20.1667 18.9167 20.1667H10.4167ZM15.375 10.9583V7.41667H10.4167V18.75H18.9167V10.9583H15.375Z" fill="white"/>
</svg>
