<svg width="23" height="22" viewBox="0 0 23 22" fill="none" xmlns="http://www.w3.org/2000/svg">
<path d="M15.894 13.9713H14.8964L14.5429 13.6499C15.7803 12.2926 16.5254 10.5306 16.5254 8.61373C16.5254 4.33957 12.8508 0.875 8.31761 0.875C3.78441 0.875 0.109863 4.33957 0.109863 8.61373C0.109863 12.8879 3.78441 16.3525 8.31761 16.3525C10.3506 16.3525 12.2194 15.65 13.659 14.4833L13.9999 14.8166V15.7572L20.3135 21.6981L22.195 19.9242L15.894 13.9713ZM8.31761 13.9713C5.17341 13.9713 2.63532 11.5783 2.63532 8.61373C2.63532 5.6492 5.17341 3.25615 8.31761 3.25615C11.4618 3.25615 13.9999 5.6492 13.9999 8.61373C13.9999 11.5783 11.4618 13.9713 8.31761 13.9713Z" fill="#2E3A50"/>
</svg>
