<svg width="50" height="50" viewBox="0 0 26 30" fill="none" xmlns="http://www.w3.org/2000/svg">
<g clip-path="url(#clip0_211_12)">
<path d="M3.7275 20.625C4.83 19.8917 5.92375 19.3292 7.00875 18.9375C8.09375 18.5458 9.2575 18.35 10.5 18.35C11.7425 18.35 12.9106 18.5458 14.0044 18.9375C15.0981 19.3292 16.1962 19.8917 17.2987 20.625C18.0687 19.725 18.6156 18.8167 18.9394 17.9C19.2631 16.9833 19.425 16.0167 19.425 15C19.425 12.5833 18.5719 10.5625 16.8656 8.9375C15.1594 7.3125 13.0375 6.5 10.5 6.5C7.9625 6.5 5.84062 7.3125 4.13437 8.9375C2.42812 10.5625 1.575 12.5833 1.575 15C1.575 16.0167 1.74125 16.9833 2.07375 17.9C2.40625 18.8167 2.9575 19.725 3.7275 20.625ZM10.4951 15.75C9.48337 15.75 8.63187 15.4193 7.94062 14.7579C7.24937 14.0964 6.90375 13.2839 6.90375 12.3203C6.90375 11.3568 7.251 10.5458 7.94551 9.8875C8.64001 9.22917 9.49314 8.9 10.5049 8.9C11.5166 8.9 12.3681 9.23072 13.0594 9.89215C13.7506 10.5536 14.0962 11.3661 14.0962 12.3297C14.0962 13.2932 13.749 14.1042 13.0545 14.7625C12.36 15.4208 11.5069 15.75 10.4951 15.75ZM10.5123 25C9.06909 25 7.70875 24.7375 6.43125 24.2125C5.15375 23.6875 4.03812 22.9708 3.08437 22.0625C2.13062 21.1542 1.37812 20.0936 0.826875 18.8809C0.275625 17.6681 0 16.3723 0 14.9934C0 13.6145 0.275625 12.3208 0.826875 11.1125C1.37812 9.90417 2.13062 8.84583 3.08437 7.9375C4.03812 7.02917 5.1517 6.3125 6.42511 5.7875C7.69851 5.2625 9.05914 5 10.507 5C11.9548 5 13.3131 5.2625 14.5819 5.7875C15.8506 6.3125 16.9619 7.02917 17.9156 7.9375C18.8694 8.84583 19.6219 9.90443 20.1731 11.1133C20.7244 12.3222 21 13.6138 21 14.9883C21 16.3628 20.7244 17.6583 20.1731 18.875C19.6219 20.0917 18.8694 21.1542 17.9156 22.0625C16.9619 22.9708 15.8503 23.6875 14.581 24.2125C13.3117 24.7375 11.9555 25 10.5123 25ZM10.5 23.5C11.4625 23.5 12.4031 23.3667 13.3219 23.1C14.2406 22.8333 15.1462 22.3667 16.0387 21.7C15.1462 21.1 14.2362 20.6417 13.3087 20.325C12.3812 20.0083 11.445 19.85 10.5 19.85C9.555 19.85 8.61875 20.0083 7.69125 20.325C6.76375 20.6417 5.85375 21.1 4.96125 21.7C5.85375 22.3667 6.75937 22.8333 7.67812 23.1C8.59687 23.3667 9.5375 23.5 10.5 23.5ZM10.5 14.25C11.095 14.25 11.5806 14.0708 11.9569 13.7125C12.3331 13.3542 12.5212 12.8917 12.5212 12.325C12.5212 11.7583 12.3331 11.2958 11.9569 10.9375C11.5806 10.5792 11.095 10.4 10.5 10.4C9.905 10.4 9.41937 10.5792 9.04312 10.9375C8.66687 11.2958 8.47875 11.7583 8.47875 12.325C8.47875 12.8917 8.66687 13.3542 9.04312 13.7125C9.41937 14.0708 9.905 14.25 10.5 14.25Z" fill="white"/>
</g>
<defs>
<clipPath id="clip0_211_12">
<rect width="25.16" height="28.1752" fill="white" transform="translate(0.447266 0.950317)"/>
</clipPath>
</defs>
</svg>
