<svg width="50" height="43" viewBox="0 0 29 23" fill="none" xmlns="http://www.w3.org/2000/svg">
<path d="M4.83325 18.2083V16.2916H7.24992V9.58329C7.24992 8.2576 7.75339 7.07965 8.76034 6.04944C9.76728 5.01923 11.0763 4.3444 12.6874 4.02496V3.35413C12.6874 2.95482 12.8636 2.61541 13.2161 2.3359C13.5685 2.05638 13.9964 1.91663 14.4999 1.91663C15.0034 1.91663 15.4313 2.05638 15.7838 2.3359C16.1362 2.61541 16.3124 2.95482 16.3124 3.35413V4.02496C17.9235 4.3444 19.2326 5.01923 20.2395 6.04944C21.2464 7.07965 21.7499 8.2576 21.7499 9.58329V16.2916H24.1666V18.2083H4.83325ZM14.4999 21.0833C13.8353 21.0833 13.2664 20.8956 12.7931 20.5203C12.3199 20.1449 12.0833 19.6937 12.0833 19.1666H16.9166C16.9166 19.6937 16.68 20.1449 16.2067 20.5203C15.7334 20.8956 15.1645 21.0833 14.4999 21.0833ZM9.66659 16.2916H19.3333V9.58329C19.3333 8.52913 18.86 7.6267 17.9135 6.876C16.9669 6.12531 15.8291 5.74996 14.4999 5.74996C13.1708 5.74996 12.0329 6.12531 11.0864 6.876C10.1398 7.6267 9.66659 8.52913 9.66659 9.58329V16.2916Z" fill="white"/>
</svg>
